# xmcd CD database file
#
# Track frame offsets:
#	150
#	21064
#	43408
#	60650
#	77879
#	104936
#	122894
#	136631
#	169133
#	191124
#
# Disc length: 2738 seconds
#
# Revision: 1
# Processed by: cddbd v1.5.2PL0 Copyright (c) Steve Scherf et al.
# Submitted via: CDex 1.51
#
DISCID=910ab00a
DTITLE=MAGIC SLIM and NICK HOLT and the TEAR DROPS - Chicago Blues Session Volume 10-You Can't Lose What You Ain't Never Had
DYEAR=1990
DGENRE=Blues
TTITLE0=Bad Boy
TTITLE1=You Can't Lose What Yuo Ain't Had
TTITLE2=If It's Too Late
TTITLE3=Before You Accuse Me
TTITLE4=Driftin' Blues
TTITLE5=Everybody In Town
TTITLE6=How Much More
TTITLE7=How Unlucky Can One Man Be
TTITLE8=That Will Never Do
TTITLE9=Dust My Brown
EXTD=YEAR: 1990
EXTT0=
EXTT1=
EXTT2=
EXTT3=
EXTT4=
EXTT5=
EXTT6=
EXTT7=
EXTT8=
EXTT9=
PLAYORDER=
